<?xml version="1.0" encoding="UTF-8"?>
<svg xmlns="http://www.w3.org/2000/svg" viewBox="0 0 800 450" width="800" height="450" role="img" aria-label="夜の睡眠と在宅会議が落ち着く暮らしのイメージ">
  <rect width="800" height="450" fill="#1E3050"/>
  <rect x="0" y="0" width="800" height="450" fill="none" stroke="#E6E0D2" stroke-width="2" opacity="0.4"/>
  <g opacity="0.6">
    <circle cx="120" cy="80" r="1.4" fill="#FBF9F4"/>
    <circle cx="240" cy="60" r="1.0" fill="#FBF9F4"/>
    <circle cx="380" cy="100" r="1.6" fill="#FBF9F4"/>
    <circle cx="520" cy="70" r="1.2" fill="#FBF9F4"/>
    <circle cx="660" cy="92" r="1.0" fill="#FBF9F4"/>
    <circle cx="720" cy="40" r="1.4" fill="#FBF9F4"/>
  </g>
  <circle cx="650" cy="100" r="38" fill="#FBF9F4" opacity="0.9"/>
  <circle cx="638" cy="92" r="34" fill="#1E3050"/>
  <g>
    <rect x="60" y="170" width="320" height="220" rx="10" fill="#122036" stroke="#E6CBAE" opacity="0.96"/>
    <rect x="80" y="200" width="280" height="170" rx="6" fill="#152238"/>
    <rect x="100" y="280" width="240" height="80" rx="4" fill="#3A4E72"/>
    <ellipse cx="220" cy="270" rx="60" ry="14" fill="#506A95"/>
    <circle cx="220" cy="244" r="22" fill="#E6CBAE"/>
    <path d="M198 260 Q 220 248 242 260" stroke="#1E3050" fill="none" stroke-width="2"/>
    <text x="120" y="232" font-family="'Noto Sans JP',sans-serif" font-size="22" font-weight="700" fill="#FBF9F4">Z</text>
    <text x="138" y="220" font-family="'Noto Sans JP',sans-serif" font-size="16" font-weight="700" fill="#FBF9F4" opacity="0.78">z</text>
    <text x="152" y="210" font-family="'Noto Sans JP',sans-serif" font-size="12" font-weight="700" fill="#FBF9F4" opacity="0.6">z</text>
    <text x="220" y="412" text-anchor="middle" font-family="'Noto Serif JP',serif" font-size="18" font-weight="700" fill="#FBF9F4">夜の眠り</text>
  </g>
  <g>
    <rect x="420" y="170" width="320" height="220" rx="10" fill="#122036" stroke="#E6CBAE" opacity="0.96"/>
    <rect x="440" y="200" width="280" height="170" rx="6" fill="#FBF9F4"/>
    <rect x="460" y="220" width="240" height="130" rx="4" fill="#1E3050"/>
    <circle cx="540" cy="280" r="22" fill="#E6CBAE"/>
    <rect x="520" y="306" width="40" height="36" rx="4" fill="#BC5C2C"/>
    <circle cx="620" cy="280" r="22" fill="#FBF3DC"/>
    <rect x="600" y="306" width="40" height="36" rx="4" fill="#506A95"/>
    <rect x="490" y="240" width="180" height="12" rx="2" fill="#FBF9F4" opacity="0.4"/>
    <rect x="490" y="258" width="120" height="10" rx="2" fill="#FBF9F4" opacity="0.3"/>
    <text x="580" y="412" text-anchor="middle" font-family="'Noto Serif JP',serif" font-size="18" font-weight="700" fill="#FBF9F4">在宅の会議</text>
  </g>
  <g>
    <rect x="20" y="20" width="86" height="24" rx="5" fill="#FBF9F4" opacity="0.18"/>
    <text x="63" y="38" text-anchor="middle" font-family="'Noto Sans JP',sans-serif" font-size="12" font-weight="700" fill="#FBF9F4">イメージ</text>
  </g>
</svg>
