<?xml version="1.0" encoding="UTF-8"?>
<svg xmlns="http://www.w3.org/2000/svg" viewBox="0 0 1600 900" width="1600" height="900" role="img" aria-label="夜の高架を走る電車と、その先のマンションの一室の窓のイメージ">
  <defs>
    <linearGradient id="sky" x1="0" y1="0" x2="0" y2="1">
      <stop offset="0" stop-color="#0F1A2C"/>
      <stop offset="0.55" stop-color="#1E3050"/>
      <stop offset="1" stop-color="#2A4470"/>
    </linearGradient>
    <linearGradient id="window" x1="0" y1="0" x2="0" y2="1">
      <stop offset="0" stop-color="#FBF3DC"/>
      <stop offset="1" stop-color="#E8C98A"/>
    </linearGradient>
    <radialGradient id="moon" cx="50%" cy="50%" r="50%">
      <stop offset="0" stop-color="#FBF9F4" stop-opacity="0.95"/>
      <stop offset="1" stop-color="#FBF9F4" stop-opacity="0"/>
    </radialGradient>
  </defs>
  <rect width="1600" height="900" fill="url(#sky)"/>
  <circle cx="1260" cy="170" r="140" fill="url(#moon)"/>
  <circle cx="1260" cy="170" r="48" fill="#FBF9F4" opacity="0.92"/>
  <g opacity="0.65">
    <circle cx="220" cy="120" r="1.6" fill="#FBF9F4"/>
    <circle cx="480" cy="80" r="1.2" fill="#FBF9F4"/>
    <circle cx="720" cy="160" r="1.8" fill="#FBF9F4"/>
    <circle cx="940" cy="60" r="1.2" fill="#FBF9F4"/>
    <circle cx="1080" cy="240" r="1.6" fill="#FBF9F4"/>
    <circle cx="1480" cy="320" r="1.2" fill="#FBF9F4"/>
    <circle cx="1380" cy="90" r="1.4" fill="#FBF9F4"/>
    <circle cx="160" cy="280" r="1.0" fill="#FBF9F4"/>
  </g>
  <g opacity="0.78">
    <rect x="0" y="430" width="1600" height="220" fill="#0A1220"/>
    <rect x="40" y="450" width="160" height="200" fill="#152238"/>
    <rect x="48" y="478" width="36" height="42" fill="url(#window)" opacity="0.85"/>
    <rect x="100" y="478" width="36" height="42" fill="url(#window)" opacity="0.55"/>
    <rect x="152" y="478" width="36" height="42" fill="url(#window)" opacity="0.85"/>
    <rect x="48" y="540" width="36" height="42" fill="url(#window)" opacity="0.6"/>
    <rect x="100" y="540" width="36" height="42" fill="url(#window)" opacity="0.85"/>
    <rect x="152" y="540" width="36" height="42" fill="url(#window)" opacity="0.5"/>
    <rect x="240" y="440" width="180" height="210" fill="#152238"/>
    <rect x="250" y="466" width="40" height="42" fill="url(#window)" opacity="0.75"/>
    <rect x="305" y="466" width="40" height="42" fill="url(#window)" opacity="0.55"/>
    <rect x="360" y="466" width="40" height="42" fill="url(#window)" opacity="0.85"/>
    <rect x="250" y="530" width="40" height="42" fill="url(#window)" opacity="0.55"/>
    <rect x="305" y="530" width="40" height="42" fill="url(#window)" opacity="0.85"/>
    <rect x="360" y="530" width="40" height="42" fill="url(#window)" opacity="0.7"/>
    <rect x="460" y="455" width="180" height="195" fill="#152238"/>
    <rect x="470" y="478" width="38" height="40" fill="url(#window)" opacity="0.85"/>
    <rect x="524" y="478" width="38" height="40" fill="url(#window)" opacity="0.55"/>
    <rect x="578" y="478" width="38" height="40" fill="url(#window)" opacity="0.78"/>
    <rect x="470" y="540" width="38" height="40" fill="url(#window)" opacity="0.6"/>
    <rect x="524" y="540" width="38" height="40" fill="url(#window)" opacity="0.78"/>
    <rect x="578" y="540" width="38" height="40" fill="url(#window)" opacity="0.85"/>
    <rect x="1040" y="445" width="170" height="205" fill="#152238"/>
    <rect x="1052" y="468" width="38" height="40" fill="url(#window)" opacity="0.85"/>
    <rect x="1105" y="468" width="38" height="40" fill="url(#window)" opacity="0.55"/>
    <rect x="1158" y="468" width="38" height="40" fill="url(#window)" opacity="0.78"/>
    <rect x="1052" y="530" width="38" height="40" fill="url(#window)" opacity="0.65"/>
    <rect x="1105" y="530" width="38" height="40" fill="url(#window)" opacity="0.78"/>
    <rect x="1158" y="530" width="38" height="40" fill="url(#window)" opacity="0.85"/>
    <rect x="1260" y="430" width="200" height="220" fill="#152238"/>
    <rect x="1272" y="455" width="44" height="42" fill="url(#window)" opacity="0.85"/>
    <rect x="1334" y="455" width="44" height="42" fill="url(#window)" opacity="0.55"/>
    <rect x="1396" y="455" width="44" height="42" fill="url(#window)" opacity="0.7"/>
    <rect x="1272" y="520" width="44" height="42" fill="url(#window)" opacity="0.55"/>
    <rect x="1334" y="520" width="44" height="42" fill="url(#window)" opacity="0.78"/>
    <rect x="1396" y="520" width="44" height="42" fill="url(#window)" opacity="0.85"/>
  </g>
  <rect x="0" y="640" width="1600" height="40" fill="#1A2840"/>
  <rect x="0" y="678" width="1600" height="8" fill="#243958"/>
  <g opacity="0.95">
    <rect x="80" y="608" width="900" height="56" rx="8" fill="#3A4E72"/>
    <rect x="80" y="608" width="900" height="14" fill="#506A95"/>
    <rect x="90" y="624" width="48" height="34" fill="#FBF3DC" opacity="0.92"/>
    <rect x="148" y="624" width="48" height="34" fill="#FBF3DC" opacity="0.92"/>
    <rect x="206" y="624" width="48" height="34" fill="#FBF3DC" opacity="0.92"/>
    <rect x="264" y="624" width="48" height="34" fill="#FBF3DC" opacity="0.92"/>
    <rect x="322" y="624" width="48" height="34" fill="#FBF3DC" opacity="0.92"/>
    <rect x="380" y="624" width="48" height="34" fill="#FBF3DC" opacity="0.92"/>
    <rect x="438" y="624" width="48" height="34" fill="#FBF3DC" opacity="0.92"/>
    <rect x="496" y="624" width="48" height="34" fill="#FBF3DC" opacity="0.92"/>
    <rect x="554" y="624" width="48" height="34" fill="#FBF3DC" opacity="0.92"/>
    <rect x="612" y="624" width="48" height="34" fill="#FBF3DC" opacity="0.92"/>
    <rect x="670" y="624" width="48" height="34" fill="#FBF3DC" opacity="0.92"/>
    <rect x="728" y="624" width="48" height="34" fill="#FBF3DC" opacity="0.92"/>
    <rect x="786" y="624" width="48" height="34" fill="#FBF3DC" opacity="0.92"/>
    <rect x="844" y="624" width="48" height="34" fill="#FBF3DC" opacity="0.92"/>
    <rect x="902" y="624" width="48" height="34" fill="#FBF3DC" opacity="0.92"/>
    <rect x="120" y="600" width="40" height="14" rx="3" fill="#1E3050"/>
    <rect x="900" y="600" width="40" height="14" rx="3" fill="#1E3050"/>
  </g>
  <g stroke="#BC5C2C" stroke-linecap="round" fill="none" opacity="0.9">
    <path d="M1010 620 Q 1050 660 1010 700" stroke-width="6"/>
    <path d="M1050 612 Q 1095 660 1050 708" stroke-width="5"/>
    <path d="M1090 604 Q 1138 660 1090 716" stroke-width="4"/>
    <path d="M1130 596 Q 1180 660 1130 724" stroke-width="3"/>
  </g>
  <text x="1115" y="588" font-family="'Noto Sans JP',sans-serif" font-size="22" font-weight="700" fill="#BC5C2C">通過音</text>
  <g>
    <rect x="1200" y="690" width="380" height="190" rx="14" fill="#1B232E" opacity="0.78"/>
    <rect x="1218" y="708" width="142" height="146" rx="8" fill="#1E3050"/>
    <rect x="1226" y="716" width="60" height="68" fill="url(#window)" opacity="0.95"/>
    <rect x="1296" y="716" width="60" height="68" fill="url(#window)" opacity="0.95"/>
    <rect x="1226" y="792" width="60" height="58" fill="url(#window)" opacity="0.95"/>
    <rect x="1296" y="792" width="60" height="58" fill="url(#window)" opacity="0.95"/>
    <text x="1380" y="745" font-family="'Noto Serif JP',serif" font-size="22" font-weight="700" fill="#FBF9F4">マンションの一室</text>
    <text x="1380" y="780" font-family="'Noto Sans JP',sans-serif" font-size="18" fill="#E6CBAE">夜は静かに</text>
    <text x="1380" y="820" font-family="'Noto Sans JP',sans-serif" font-size="15" fill="#FBF9F4" opacity="0.78">内窓PLASTで</text>
    <text x="1380" y="842" font-family="'Noto Sans JP',sans-serif" font-size="15" fill="#FBF9F4" opacity="0.78">空気の層をつくる</text>
  </g>
  <g>
    <rect x="40" y="40" width="120" height="32" rx="6" fill="#122036" opacity="0.92"/>
    <text x="100" y="62" text-anchor="middle" font-family="'Noto Sans JP',sans-serif" font-size="15" font-weight="700" fill="#FBF9F4">イメージ</text>
  </g>
</svg>
