<?xml version="1.0" encoding="UTF-8"?>
<svg xmlns="http://www.w3.org/2000/svg" viewBox="0 0 1200 630" width="1200" height="630" role="img" aria-label="OGP：マンションの電車騒音を内窓PLASTで">
  <defs>
    <linearGradient id="ogp_bg" x1="0" y1="0" x2="0" y2="1">
      <stop offset="0" stop-color="#122036"/>
      <stop offset="1" stop-color="#1E3050"/>
    </linearGradient>
  </defs>
  <rect width="1200" height="630" fill="url(#ogp_bg)"/>
  <g opacity="0.55">
    <circle cx="200" cy="120" r="1.4" fill="#FBF9F4"/>
    <circle cx="380" cy="90" r="1.2" fill="#FBF9F4"/>
    <circle cx="560" cy="140" r="1.6" fill="#FBF9F4"/>
    <circle cx="740" cy="80" r="1.2" fill="#FBF9F4"/>
    <circle cx="940" cy="60" r="1.4" fill="#FBF9F4"/>
    <circle cx="1080" cy="120" r="1.0" fill="#FBF9F4"/>
  </g>
  <g opacity="0.75">
    <rect x="700" y="380" width="500" height="34" fill="#3A4E72"/>
    <rect x="700" y="376" width="500" height="6" fill="#506A95"/>
    <rect x="708" y="384" width="32" height="26" fill="#FBF3DC"/>
    <rect x="744" y="384" width="32" height="26" fill="#FBF3DC"/>
    <rect x="780" y="384" width="32" height="26" fill="#FBF3DC"/>
    <rect x="816" y="384" width="32" height="26" fill="#FBF3DC"/>
    <rect x="852" y="384" width="32" height="26" fill="#FBF3DC"/>
    <rect x="888" y="384" width="32" height="26" fill="#FBF3DC"/>
    <rect x="924" y="384" width="32" height="26" fill="#FBF3DC"/>
    <rect x="960" y="384" width="32" height="26" fill="#FBF3DC"/>
    <rect x="996" y="384" width="32" height="26" fill="#FBF3DC"/>
    <rect x="1032" y="384" width="32" height="26" fill="#FBF3DC"/>
  </g>
  <g stroke="#BC5C2C" stroke-linecap="round" fill="none" opacity="0.9">
    <path d="M680 392 Q 712 410 680 428" stroke-width="5"/>
    <path d="M700 388 Q 740 410 700 432" stroke-width="4"/>
    <path d="M720 384 Q 765 410 720 436" stroke-width="3"/>
  </g>
  <g>
    <rect x="80" y="350" width="260" height="180" rx="10" fill="#FBF9F4" opacity="0.95"/>
    <rect x="100" y="382" width="14" height="124" rx="2" fill="#1E3050"/>
    <rect x="114" y="382" width="86" height="124" fill="#EAF1F8"/>
    <rect x="200" y="382" width="14" height="124" rx="2" fill="#1E3050"/>
    <rect x="220" y="382" width="14" height="124" rx="2" fill="#1E3050"/>
    <rect x="234" y="382" width="86" height="124" fill="#F2ECDF"/>
    <rect x="320" y="382" width="14" height="124" rx="2" fill="#1E3050"/>
    <text x="207" y="368" text-anchor="middle" font-family="'Noto Sans JP',sans-serif" font-size="14" font-weight="700" fill="#1E3050">内窓PLAST</text>
  </g>
  <text x="80" y="156" font-family="'Noto Serif JP',serif" font-size="64" font-weight="900" fill="#FBF9F4">マンションの夜を、</text>
  <text x="80" y="232" font-family="'Noto Serif JP',serif" font-size="64" font-weight="900" fill="#FBF9F4">窓で取り戻す。</text>
  <text x="80" y="284" font-family="'Noto Sans JP',sans-serif" font-size="24" fill="#E6CBAE">駅近マンションの電車騒音を、内窓PLASTで。</text>
  <g>
    <rect x="80" y="556" width="220" height="44" rx="6" fill="#BC5C2C"/>
    <text x="190" y="586" text-anchor="middle" font-family="'Noto Sans JP',sans-serif" font-size="18" font-weight="700" fill="#FFFFFF">フクシマ建材／九州プラスト</text>
  </g>
  <g>
    <rect x="1060" y="30" width="110" height="32" rx="5" fill="#0F1A2C"/>
    <text x="1115" y="52" text-anchor="middle" font-family="'Noto Sans JP',sans-serif" font-size="14" font-weight="700" fill="#FBF9F4">イメージ</text>
  </g>
</svg>
